<?xml version="1.0" encoding="UTF-8"?>
<svg version="1.1" xmlns="http://www.w3.org/2000/svg" width="1984" height="958">
<path d="M0 0 C1.27617187 0.00580078 1.27617187 0.00580078 2.578125 0.01171875 C4.75 0.3125 4.75 0.3125 6.75 2.3125 C7.07495889 7.75014538 5.67366411 12.82127722 3.8125 17.875 C-3.5081815 38.84486422 0.2704657 60.67754026 9.44995117 80.4128418 C16.11499709 94.07742173 25.24460473 105.43029716 35.75 116.3125 C37.02037109 117.67761719 37.02037109 117.67761719 38.31640625 119.0703125 C46.24391304 127.38240882 56.20520616 135.10286583 68.125 135.75 C77.63681429 135.34489718 85.77804363 129.73400776 93.74609375 125.01953125 C98.3544965 122.400712 102.26637731 122.11139081 107.4375 121.875 C110.20988337 121.70487927 112.97933978 121.51020816 115.75 121.3125 C116.54535156 121.2609375 117.34070312 121.209375 118.16015625 121.15625 C123.70389713 120.30879917 127.51015453 116.5042022 131.54003906 112.85571289 C135.88490868 108.94432381 138.87126175 108.272495 144.57421875 107.953125 C169.87688604 106.3139626 188.23940918 98.4529046 209.39355469 84.79296875 C221.55136129 77.02690726 221.55136129 77.02690726 228.25 77.625 C229.4875 77.9653125 229.4875 77.9653125 230.75 78.3125 C230.94146996 90.67598913 223.83747729 99.40571428 216.13671875 108.453125 C213.9988408 111.01437977 211.99869456 113.62486267 210.01464844 116.30371094 C202.55746678 126.30612372 194.59018016 132.72916744 183.77709961 138.81323242 C177.5061329 142.34248749 172.91243996 145.86037593 168.5625 151.6875 C164.23853614 157.10147812 159.84094456 160.16618427 153.75 163.3125 C149.92472682 165.2340165 149.92472682 165.2340165 147.75 168.6875 C147.75 172.35302592 148.30820479 173.5218769 150.75 176.3125 C154.84245748 178.86033345 159.21364002 180.73914095 163.72265625 182.421875 C170.53821765 184.98980265 175.08303553 188.03205114 180.3515625 193.04296875 C189.32027052 201.52964523 199.07330616 205.0463867 210.75 208.3125 C211.82765625 208.62832031 212.9053125 208.94414062 214.015625 209.26953125 C225.57543991 211.96997981 237.78713538 207.54779795 247.953125 202.06640625 C255.09297582 197.5890417 261.17886547 191.85795413 267.375 186.1875 C270.74598669 183.11027072 274.11725972 180.04618106 277.625 177.125 C278.30304688 176.55394531 278.98109375 175.98289062 279.6796875 175.39453125 C281.75 174.3125 281.75 174.3125 284.4453125 174.57421875 C286.75 175.3125 286.75 175.3125 287.75 176.3125 C289.04876827 191.89771925 280.77064663 207.36152416 271.25 219.25 C264.72201383 226.79171781 257.75462376 233.28678384 249.97265625 239.52734375 C247.90219979 241.12412783 247.90219979 241.12412783 246.75 242.3125 C246.37492362 247.65733835 246.85813504 251.44952484 248.99609375 256.35546875 C255.01693855 271.98470835 250.28161683 293.25755283 244.03125 307.921875 C242.82056947 310.18082769 241.66871119 311.63920535 239.75 313.3125 C232.51169246 310.64242502 226.70460125 305.85586751 220.671875 301.13671875 C209.53744369 292.43701311 200.53093677 285.49266241 186.01318359 285.02270508 C156.87023073 284.05863962 131.24487 274.91897104 108.75 256.3125 C107.08488795 254.97722572 105.41874426 253.64323219 103.75 252.3125 C108.64058774 270.87243234 118.32974029 287.66809984 134.75 298.3125 C146.88223952 305.32574626 158.27123278 309.28534346 172.234375 310.6875 C176.87711677 311.51287631 180.3990382 312.9615382 183.75 316.3125 C184.125 319.25 184.125 319.25 183.75 322.3125 C180.41142574 325.81456114 176.20433259 326.23179633 171.625 326.9375 C170.85728271 327.06229736 170.08956543 327.18709473 169.29858398 327.31567383 C167.11768834 327.66298543 164.93492801 327.99167378 162.75 328.3125 C161.85667969 328.44785156 160.96335937 328.58320312 160.04296875 328.72265625 C139.03135001 331.33530937 118.0152572 329.3806781 100.75 316.3125 C92.78288944 310.03692034 88.65866498 300.74711088 83.96875 291.984375 C77.59871919 280.46041018 70.22727954 275.77375155 58.671875 270.2265625 C53.8328219 267.8953568 49.23410314 265.27046479 44.75 262.3125 C44.16863281 261.93996094 43.58726563 261.56742188 42.98828125 261.18359375 C38.17001423 257.70036293 35.62765998 252.8240795 33.75 247.3125 C33.09298278 242.7656422 33.64528428 238.36554008 34.09765625 233.81640625 C35.16371134 224.58302198 35.16371134 224.58302198 31.75 216.3125 C28.20157931 213.87929724 25.12880092 214.25385828 20.96411133 214.81787109 C17.0766874 215.68631534 13.71836329 217.58181671 10.1875 219.375 C-0.0602666 224.22267604 -9.02151882 225.30597282 -20.0625 221.6875 C-21.8099762 220.93711316 -23.54064199 220.14607582 -25.25 219.3125 C-26.0440625 218.94640625 -26.838125 218.5803125 -27.65625 218.203125 C-40.65290086 211.36722422 -51.71472134 198.2165892 -58.3125 185.3125 C-60.75525585 181.53016836 -61.92967097 181.37924791 -66.25 180.3125 C-68.59219613 180.0488876 -70.92842314 179.8816939 -73.28051758 179.73095703 C-84.44697576 179.00593058 -92.07033013 176.22238591 -101.546875 170.2265625 C-105.44472723 168.00875504 -109.29303263 167.24599447 -113.6875 166.5625 C-114.41904297 166.43746094 -115.15058594 166.31242188 -115.90429688 166.18359375 C-117.68418399 165.88112927 -119.46684546 165.5950647 -121.25 165.3125 C-107.61345552 180.92229123 -94.29153474 193.80883557 -75.34375 202.8046875 C-70.26259638 205.28110833 -66.20078706 207.35939315 -63.25 212.3125 C-62.05133059 217.18871977 -61.8009919 221.05527731 -63.5 225.8125 C-65.25 228.3125 -65.25 228.3125 -68.25 230.3125 C-69.24 230.3125 -70.23 230.3125 -71.25 230.3125 C-70.92515625 231.47652344 -70.92515625 231.47652344 -70.59375 232.6640625 C-70.3153125 233.74429688 -70.036875 234.82453125 -69.75 235.9375 C-69.4715625 236.98164062 -69.193125 238.02578125 -68.90625 239.1015625 C-66.37226444 252.49915508 -69.5287598 265.48839004 -72.25927734 278.5637207 C-75.18461479 292.71422329 -77.20279505 306.80949532 -73.625 321.0625 C-73.36638184 322.10688232 -73.36638184 322.10688232 -73.10253906 323.17236328 C-71.58358311 328.92044009 -69.09420092 334.01267385 -66.42578125 339.31640625 C-64.85145201 343.32806914 -65.09845784 346.61128332 -65.34765625 350.84765625 C-65.20811814 354.36959816 -63.7695587 356.18075818 -61.734375 358.96484375 C-59.80725945 362.01272913 -58.62877202 365.26352202 -57.375 368.625 C-52.72422537 380.75602053 -45.5729632 391.1919577 -35.5 399.5 C-31.76347812 402.62944395 -28.52302219 405.58675386 -28.01171875 410.69140625 C-28.00128037 412.9147816 -28.07274701 415.09683765 -28.25 417.3125 C-27.54488281 417.55484375 -26.83976562 417.7971875 -26.11328125 418.046875 C-22.81291358 419.50570054 -20.29462506 421.36067885 -17.4375 423.5625 C-13.87610297 426.30271177 -10.30227283 428.98101414 -6.625 431.5625 C-3.52347212 433.85521055 -2.56642455 435.66701663 -1.25 439.3125 C0.3976038 440.02497732 2.06763529 440.68650383 3.75 441.3125 C6.5625 443.8125 6.5625 443.8125 8.75 446.3125 C8.75 446.9725 8.75 447.6325 8.75 448.3125 C1.27158809 449.24888322 -5.00126334 449.44620071 -12.25 447.3125 C-13.5822378 446.97481473 -14.91527644 446.6402223 -16.25 446.3125 C-15.8890625 446.78300781 -15.528125 447.25351562 -15.15625 447.73828125 C-14.46015625 448.67220703 -14.46015625 448.67220703 -13.75 449.625 C-13.05390625 450.54732422 -13.05390625 450.54732422 -12.34375 451.48828125 C-11.25 453.3125 -11.25 453.3125 -11.25 456.3125 C-10.4146875 456.621875 -10.4146875 456.621875 -9.5625 456.9375 C-6.30356595 458.87524457 -4.55433531 461.30406223 -2.25 464.3125 C-2.25 464.6425 -2.25 464.9725 -2.25 465.3125 C-11.70172626 465.70151922 -19.14119236 465.8391538 -26.75 459.625 C-27.575 458.861875 -28.4 458.09875 -29.25 457.3125 C-28.84419011 461.77640881 -26.98792464 464.33855096 -24.30859375 467.76171875 C-23.25 469.3125 -23.25 469.3125 -23.25 471.3125 C-30.06648474 471.81535543 -35.74933269 471.72917836 -41.25 467.3125 C-48.32790098 459.45337375 -54.42761948 447.9974035 -57.875 438 C-59.3580669 434.02268421 -61.3389822 430.80861019 -63.578125 427.22265625 C-65.5432621 423.80203208 -67.13982415 420.28465415 -68.75 416.6875 C-73.80763482 405.54273911 -80.80618751 397.70330644 -90.4375 390.25 C-94.22074258 387.24295461 -97.19195531 384.7865102 -99.25 380.3125 C-99.36683739 378.60613068 -99.44751354 376.89705912 -99.5 375.1875 C-99.55884067 372.60907883 -99.55884067 372.60907883 -100.25 370.3125 C-102.18047726 368.75763596 -103.89979167 368.01312346 -106.2421875 367.2265625 C-108.88032037 366.02554481 -109.81782894 364.82316574 -111.25 362.3125 C-113.94220068 349.80742293 -108.39064072 336.12570202 -105.00610352 324.25 C-99.52247848 302.94584229 -103.83986361 279.73833615 -107.67749023 258.48681641 C-108.22832134 255.43269872 -108.74637261 252.37471634 -109.25 249.3125 C-109.806875 250.281875 -110.36375 251.25125 -110.9375 252.25 C-113.25 255.3125 -113.25 255.3125 -115.89453125 256.00390625 C-116.67183594 256.10574219 -117.44914062 256.20757813 -118.25 256.3125 C-118.0334375 257.19550781 -117.816875 258.07851563 -117.59375 258.98828125 C-117.3153125 260.18839844 -117.036875 261.38851563 -116.75 262.625 C-116.4715625 263.79675781 -116.193125 264.96851563 -115.90625 266.17578125 C-114.23641399 275.0734476 -115.39982342 283.76229737 -117.0625 292.5625 C-117.33271973 294.07336182 -117.33271973 294.07336182 -117.60839844 295.61474609 C-118.38323564 299.89692163 -119.18671574 304.16197654 -120.18359375 308.3984375 C-124.46942018 326.97718749 -123.51689887 344.86724446 -115 362.0625 C-112.4238632 367.27244831 -111.7354656 371.0188621 -112.4296875 376.77734375 C-112.17288529 380.40048798 -110.31007214 382.36058983 -108.25 385.3125 C-107.25546562 387.66418719 -106.32008451 390.04155012 -105.4375 392.4375 C-101.68344061 402.20191339 -96.15979294 416.35760353 -86.25 421.3125 C-86.25 421.9725 -86.25 422.6325 -86.25 423.3125 C-85.65574219 423.56 -85.06148437 423.8075 -84.44921875 424.0625 C-81.91461241 425.50312883 -80.75030435 426.9521772 -79.0625 429.3125 C-78.55332031 430.01375 -78.04414062 430.715 -77.51953125 431.4375 C-74.75436124 435.52144341 -75.17159655 438.4514858 -75.25 443.3125 C-74.38117188 443.54582031 -73.51234375 443.77914063 -72.6171875 444.01953125 C-68.80416227 445.48369755 -66.45592068 447.33177559 -63.375 450 C-62.85687744 450.44480713 -62.33875488 450.88961426 -61.80493164 451.34790039 C-60.27935849 452.66104298 -58.76448344 453.98658265 -57.25 455.3125 C-56.44175781 456.00859375 -55.63351562 456.7046875 -54.80078125 457.421875 C-49.88316276 461.67593314 -49.88316276 461.67593314 -47.796875 463.7734375 C-45.95673811 465.60428077 -44.02183957 467.297623 -42.0625 469 C-41.34707031 469.62261719 -40.63164063 470.24523437 -39.89453125 470.88671875 C-39.08048828 471.59248047 -39.08048828 471.59248047 -38.25 472.3125 C-40.80405195 474.86655195 -42.57498129 474.62270488 -46.06665039 474.69140625 C-46.82840576 474.69011719 -47.59016113 474.68882812 -48.375 474.6875 C-49.14384521 474.68878906 -49.91269043 474.69007813 -50.70483398 474.69140625 C-56.49869608 474.58312126 -60.3900502 473.62140199 -65.25 470.3125 C-64.82847656 470.84359375 -64.40695312 471.3746875 -63.97265625 471.921875 C-63.42480469 472.62828125 -62.87695312 473.3346875 -62.3125 474.0625 C-61.76722656 474.75859375 -61.22195313 475.4546875 -60.66015625 476.171875 C-59.2670753 478.2865796 -58.81748063 479.88347074 -58.25 482.3125 C-57.6725 482.60125 -57.095 482.89 -56.5 483.1875 C-53.14496711 484.86501645 -51.52314398 487.34478425 -49.25 490.3125 C-49.25 490.6425 -49.25 490.9725 -49.25 491.3125 C-61.07265776 491.79910329 -67.91909741 490.50507075 -77.25 483.3125 C-75.89428903 487.37963292 -73.85326057 490.39900139 -71.2734375 493.76171875 C-70.25 495.3125 -70.25 495.3125 -70.25 497.3125 C-76.24708769 497.63961387 -81.92451559 497.35290223 -87.25 494.3125 C-90.98870081 490.29207605 -93.93595275 485.95096918 -96.75 481.25 C-97.33744995 480.27426025 -97.33744995 480.27426025 -97.93676758 479.27880859 C-100.95782243 474.11938103 -103.08072581 468.84991881 -105.08203125 463.21484375 C-106.49970188 459.69200335 -108.44034724 456.94730728 -110.65234375 453.88671875 C-112.74528337 450.51447619 -114.17528481 446.97356417 -115.6875 443.3125 C-120.66535946 431.48923305 -128.24380662 423.61395258 -138.3046875 415.6953125 C-142.68836817 412.21470768 -145.58481047 408.74202708 -147.25 403.3125 C-147.53809679 400.54488169 -147.44951782 398.10574953 -147.25 395.3125 C-148.5803125 395.250625 -148.5803125 395.250625 -149.9375 395.1875 C-153.48438326 394.25058744 -155.11524363 393.12574178 -157.265625 390.14453125 C-161.91402006 381.49335156 -157.57768201 371.13510395 -155.25 362.3125 C-154.68968232 360.12831644 -154.13518173 357.94279002 -153.5847168 355.75610352 C-153.09131483 353.80164123 -152.58700799 351.84994123 -152.08203125 349.8984375 C-146.96921862 327.86293519 -151.00048851 304.19835795 -155.27368164 282.33520508 C-155.92617363 278.84065352 -156.33400114 275.47911133 -156.4140625 271.921875 C-156.43259277 271.2012085 -156.45112305 270.48054199 -156.47021484 269.73803711 C-156.49810917 267.75914021 -156.47738173 265.77972608 -156.453125 263.80078125 C-157.44377828 259.46424508 -158.9696675 258.46954035 -162.38720703 255.8605957 C-165.46159111 253.30559316 -167.41178353 250.08379311 -169.5625 246.75 C-170.51020755 245.32884908 -171.46077967 243.90960465 -172.4140625 242.4921875 C-172.88618164 241.78932617 -173.35830078 241.08646484 -173.84472656 240.36230469 C-177.40841529 235.16412357 -181.30487936 230.22404281 -185.25 225.3125 C-186.24773437 224.06339844 -186.24773437 224.06339844 -187.265625 222.7890625 C-197.63220501 210.44187574 -210.85874175 204.86617135 -225.59765625 199.328125 C-228.25 198.3125 -228.25 198.3125 -230.25 197.3125 C-233.09008714 212.98052074 -234.90600187 228.48786331 -235.85546875 244.3828125 C-236.11884079 248.74512464 -236.53168968 253.00263809 -237.25 257.3125 C-238.57 257.6425 -239.89 257.9725 -241.25 258.3125 C-252.23730731 239.36886671 -250.03336879 213.76450892 -244.71533203 193.25 C-244.17364368 191.26809716 -243.62174012 189.28951784 -243.0625 187.3125 C-240.8245295 179.32584954 -240.5399525 172.43522561 -242.25 164.3125 C-255.54533014 177.60783014 -257.84496498 208.64083244 -259.89404297 226.36669922 C-260.49489358 231.33917073 -261.21684727 236.29370871 -261.9375 241.25 C-262.06914551 242.16249512 -262.20079102 243.07499023 -262.33642578 244.01513672 C-262.63959255 246.11445437 -262.94457419 248.21350982 -263.25 250.3125 C-264.57 250.6425 -265.89 250.9725 -267.25 251.3125 C-271.98417031 243.13529674 -272.62136544 234.20712462 -272.5625 224.9375 C-272.55404053 223.50966187 -272.55404053 223.50966187 -272.54541016 222.05297852 C-271.88895596 182.8184661 -255.20403999 143.54322344 -229.25 114.3125 C-233.05427492 112.1111134 -233.05427492 112.1111134 -237.25 111.3125 C-240.50982447 114.75498705 -243.35608151 118.56059114 -246.25 122.3125 C-247.05179688 123.35019531 -247.85359375 124.38789063 -248.6796875 125.45703125 C-274.97692146 160.43034822 -281.41055856 201.24169851 -288.25 243.3125 C-290.0625 244 -290.0625 244 -292.25 244.3125 C-295.12811026 242.3215732 -295.78274943 240.23000892 -296.41015625 236.87890625 C-303.95660753 193.4769955 -284.32168942 147.85528463 -259.92578125 112.93359375 C-257.24733117 109.20639559 -254.29311155 105.74499256 -251.25 102.3125 C-254.29685906 101.90514819 -256.30006803 101.67312858 -259.25 102.3125 C-261.9762509 104.46900706 -263.7939003 107.14877699 -265.75 110 C-266.30969482 110.77585449 -266.86938965 111.55170898 -267.44604492 112.35107422 C-269.08400077 114.64870644 -270.67617622 116.97058011 -272.25 119.3125 C-272.65814941 119.9194873 -273.06629883 120.52647461 -273.48681641 121.15185547 C-275.89185971 124.78997938 -278.09621704 128.52147304 -280.25 132.3125 C-280.90355469 133.43398438 -281.55710937 134.55546875 -282.23046875 135.7109375 C-286.21340574 142.71890212 -289.46546472 149.92213668 -292.375 157.4375 C-292.67535156 158.20449219 -292.97570313 158.97148437 -293.28515625 159.76171875 C-299.81953952 177.23348173 -303.69291969 195.33944522 -307.125 213.625 C-307.53037955 215.74560929 -307.93662587 217.86605308 -308.34375 219.98632812 C-309.32244575 225.09321034 -310.28958395 230.20214993 -311.25 235.3125 C-312.57 235.6425 -313.89 235.9725 -315.25 236.3125 C-325.89457668 212.18479285 -316.1821439 177.21418883 -307.26123047 153.70703125 C-299.22374805 133.39391655 -288.96902529 115.04650671 -276.25 97.3125 C-278.89 96.3225 -281.53 95.3325 -284.25 94.3125 C-284.49621094 94.85261719 -284.74242187 95.39273438 -284.99609375 95.94921875 C-286.54145417 98.86181394 -288.39769229 101.4402167 -290.3125 104.125 C-310.93325779 133.67240268 -323.03223393 166.11579747 -330.56933594 201.20117188 C-331.68408874 206.29672774 -332.90485713 211.36633558 -334.125 216.4375 C-334.53913514 218.16925346 -334.95320557 219.90102241 -335.3671875 221.6328125 C-335.65851562 222.84710937 -335.94984375 224.06140625 -336.25 225.3125 C-337.57 225.3125 -338.89 225.3125 -340.25 225.3125 C-343.55977273 222.00272727 -342.42227799 212.16198533 -342.5625 207.75 C-342.14178698 165.88905491 -323.76605334 125.33617396 -302.25 90.3125 C-304.91194767 88.14846964 -304.91194767 88.14846964 -307.14453125 88.27734375 C-310.46426333 89.90949403 -312.01556641 92.83857238 -313.9375 95.875 C-314.37175293 96.54611816 -314.80600586 97.21723633 -315.25341797 97.90869141 C-319.91225965 105.19733329 -324.21896726 112.66021291 -328.25 120.3125 C-328.75611816 121.26552002 -328.75611816 121.26552002 -329.27246094 122.23779297 C-340.08293234 142.91479705 -345.97396217 165.52005292 -350.62109375 188.25830078 C-351.55365067 192.78713893 -352.55577675 197.29968285 -353.5625 201.8125 C-353.72210205 202.54218994 -353.8817041 203.27187988 -354.04614258 204.02368164 C-354.66771255 206.84597314 -355.33517985 209.56803954 -356.25 212.3125 C-358.3125 213 -358.3125 213 -360.25 213.3125 C-368.53039374 199.51184377 -361.97990538 174.04575635 -358.55615234 159.40942383 C-352.37780953 134.72287254 -343.06505699 106.57294768 -327.25 86.3125 C-331.61315835 86.47193331 -333.62923023 86.66103826 -336.69921875 89.8828125 C-337.47204242 91.05045011 -338.21635424 92.23725719 -338.9375 93.4375 C-339.3512085 94.09564697 -339.76491699 94.75379395 -340.19116211 95.43188477 C-357.59873702 123.75591033 -367.7158908 153.62759842 -373.87036133 186.16333008 C-374.79752035 190.88696696 -376.21299577 194.94585151 -378.25 199.3125 C-379.57 199.3125 -380.89 199.3125 -382.25 199.3125 C-391.46588154 175.05629978 -378.09670719 138.97373033 -368.25 116.3125 C-365.76320305 110.88724427 -363.0344634 105.58973323 -360.25 100.3125 C-359.87456055 99.59980957 -359.49912109 98.88711914 -359.11230469 98.15283203 C-356.84589786 93.86126863 -354.55677526 89.58248824 -352.25 85.3125 C-357.22906259 84.55822703 -357.22906259 84.55822703 -362.25 84.3125 C-364.7064098 87.32685539 -366.40833741 90.89878759 -368.25 94.3125 C-368.71696289 95.17270752 -368.71696289 95.17270752 -369.19335938 96.05029297 C-383.41459999 122.51287094 -390.63896088 152.19879374 -397.25 181.3125 C-398.9 181.6425 -400.55 181.9725 -402.25 182.3125 C-411.40802911 154.83841266 -396.34919569 118.93097892 -385.25 94.3125 C-384.49118791 92.6085177 -383.73333048 90.90410986 -382.9765625 89.19921875 C-382.64479004 88.45244873 -382.31301758 87.70567871 -381.97119141 86.9362793 C-381.73319824 86.40043213 -381.49520508 85.86458496 -381.25 85.3125 C-395.76796133 106.01844484 -404.95789079 128.4384515 -412.65136719 152.45214844 C-413.49672757 155.07924717 -414.37237659 157.69603394 -415.25 160.3125 C-416.9 159.9825 -418.55 159.6525 -420.25 159.3125 C-421.32576851 129.92746937 -413.50614949 106.2550936 -398.25 81.3125 C-401.55997584 80.7691202 -401.55997584 80.7691202 -405.25 81.3125 C-407.22940438 83.54896988 -408.39352154 85.22850406 -409.75 87.8125 C-410.12672852 88.48885498 -410.50345703 89.16520996 -410.89160156 89.86206055 C-412.05364562 91.99288393 -413.16086661 94.14358834 -414.25 96.3125 C-414.58064453 96.96943848 -414.91128906 97.62637695 -415.25195312 98.30322266 C-422.26006465 112.56048445 -425.89158812 127.8583445 -429.25 143.3125 C-431.1875 143 -431.1875 143 -433.25 142.3125 C-439.07883585 124.82599244 -432.33553904 102.8397733 -426.25 86.3125 C-425.92 85.6525 -425.59 84.9925 -425.25 84.3125 C-426.24 84.3125 -427.23 84.3125 -428.25 84.3125 C-435.10915284 92.85353467 -438.80040484 103.05799217 -442.25 113.3125 C-442.49411621 114.02954102 -442.73823242 114.74658203 -442.98974609 115.48535156 C-444.44011563 119.75136927 -445.85840499 124.02687998 -447.25 128.3125 C-448.57 128.3125 -449.89 128.3125 -451.25 128.3125 C-452.20411888 125.45014337 -452.37872353 123.64280328 -452.3828125 120.671875 C-452.38410156 119.76566406 -452.38539063 118.85945313 -452.38671875 117.92578125 C-452.38285156 116.98089844 -452.37898437 116.03601563 -452.375 115.0625 C-452.37886719 114.13308594 -452.38273438 113.20367187 -452.38671875 112.24609375 C-452.37952474 107.15992817 -452.12228352 102.32466878 -451.25 97.3125 C-451.46615967 97.85140869 -451.68231934 98.39031738 -451.9050293 98.94555664 C-452.90630707 101.4260129 -453.92177589 103.90042619 -454.9375 106.375 C-455.27716797 107.22255859 -455.61683594 108.07011719 -455.96679688 108.94335938 C-458.17405929 114.28617214 -460.45948986 118.91312051 -464.25 123.3125 C-465.57 123.3125 -466.89 123.3125 -468.25 123.3125 C-470.77328371 111.81527989 -468.35181874 100.6848407 -466.25 89.3125 C-472.79737493 92.26523771 -475.51901726 95.70105675 -478.25 102.3125 C-479.30936242 105.6091677 -480.09122204 108.92744099 -480.8125 112.3125 C-482.95201591 122.14066494 -485.53671186 132.70910242 -494.30078125 138.71875 C-501.25681221 142.63507512 -508.38846367 143.55353324 -516.25 144.3125 C-504.95178709 155.53411486 -490.38317827 163.05479179 -476.26928711 170.0769043 C-469.09922864 173.68534062 -461.72859337 177.40100963 -457.25 184.3125 C-456.26349574 188.6813046 -455.90505738 191.16269128 -457.1875 195.4375 C-459.52747625 198.69928508 -462.00125209 200.40825875 -465.265625 202.671875 C-467.39952221 204.43612072 -468.50970885 206.04380773 -469.875 208.4375 C-472.10452169 212.29855909 -474.13660575 214.33490661 -478.25 216.3125 C-482.69343975 217.46331893 -486.11085681 217.6849122 -490.5 216.25 C-496.47153411 212.04278279 -499.01613506 207.22238239 -501.25 200.5 C-507.21982228 183.76161012 -515.72114623 175.51313064 -531.25 167.3125 C-524.09602279 189.55423816 -516.61149628 210.28801561 -501.25 228.3125 C-500.49847656 229.20324219 -499.74695313 230.09398437 -498.97265625 231.01171875 C-490.34929191 240.90812808 -480.75113896 248.57972663 -469.88671875 255.83203125 C-463.31806861 260.26244451 -458.01067938 264.57955616 -455.609375 272.3984375 C-455.00685258 275.81709729 -455.23717853 278.27328139 -456.3125 281.5625 C-458.62299749 284.84191579 -460.69605677 286.46444952 -464.25 288.3125 C-467.125 288.5625 -467.125 288.5625 -469.25 288.3125 C-468.76829346 289.13717773 -468.76829346 289.13717773 -468.27685547 289.97851562 C-464.14259959 299.37544529 -468.7395492 309.92452585 -472.125 318.8125 C-475.4254165 327.62285554 -478.12598651 335.94801947 -479.25 345.3125 C-479.36021484 346.21871094 -479.47042969 347.12492187 -479.58398438 348.05859375 C-480.80390301 359.60279025 -480.17751549 371.01869238 -479.25 382.5625 C-479.15460937 383.79613281 -479.05921875 385.02976562 -478.9609375 386.30078125 C-478.72804982 389.30503233 -478.49100659 392.30889123 -478.25 395.3125 C-477.63656738 395.49570801 -477.02313477 395.67891602 -476.39111328 395.86767578 C-475.58399902 396.1201709 -474.77688477 396.37266602 -473.9453125 396.6328125 C-473.14625488 396.87789551 -472.34719727 397.12297852 -471.52392578 397.37548828 C-465.33785919 399.92456747 -462.7778617 406.10772602 -459.875 411.75 C-454.65518051 421.66765704 -447.91452163 426.87711444 -438.3984375 432.453125 C-435.26861092 434.30150893 -432.26333719 436.28113143 -429.25 438.3125 C-428.239375 438.93125 -427.22875 439.55 -426.1875 440.1875 C-422.02980884 443.19519147 -418.90662243 446.3426327 -417.25 451.3125 C-417.12218214 453.98644964 -417.20608129 456.63345857 -417.25 459.3125 C-418.24 459.3125 -419.23 459.3125 -420.25 459.3125 C-420.806875 458.69375 -421.36375 458.075 -421.9375 457.4375 C-425.16923833 454.46779451 -427.97669151 454.1671617 -432.25 453.3125 C-431.92 453.951875 -431.59 454.59125 -431.25 455.25 C-429.95020185 459.23063183 -429.52717515 463.16208635 -430.25 467.3125 C-431.76953125 469.0859375 -431.76953125 469.0859375 -433.25 470.3125 C-433.683125 469.44625 -434.11625 468.58 -434.5625 467.6875 C-437.71460077 462.83811421 -443.20333158 460.76622499 -448.25 458.3125 C-447.63125 459.01375 -447.0125 459.715 -446.375 460.4375 C-443.12127136 464.83960345 -441.96650449 468.27638469 -442.625 473.6875 C-442.83125 474.88375 -443.0375 476.08 -443.25 477.3125 C-444.24 477.6425 -445.23 477.9725 -446.25 478.3125 C-446.641875 477.549375 -447.03375 476.78625 -447.4375 476 C-449.56321404 472.84807918 -450.72091663 471.73915072 -454.25 470.3125 C-455.89635837 470.30974689 -457.54315665 470.35602353 -459.1875 470.4375 C-462.91156195 470.52013451 -464.08137391 470.40838542 -467.4375 468.5 C-469.87916729 466.10052406 -471.40300769 463.39074316 -473.10546875 460.4375 C-477.81096125 452.95790607 -484.03465523 447.19757889 -490.375 441.125 C-508.82774599 423.3909613 -508.82774599 423.3909613 -509.25 414.3125 C-508.92 413.3225 -508.59 412.3325 -508.25 411.3125 C-508.724375 410.52875 -509.19875 409.745 -509.6875 408.9375 C-513.65017553 399.74409276 -510.84999735 388.70676604 -509.11129761 379.19909668 C-505.38766194 358.46701048 -504.27969401 338.23403256 -509.375 317.6171875 C-510.82447965 311.30950647 -511.24641662 305.14919522 -508.25 299.25 C-507.87875 298.49589844 -507.5075 297.74179687 -507.125 296.96484375 C-506.83625 296.41957031 -506.5475 295.87429688 -506.25 295.3125 C-506.8275 295.126875 -507.405 294.94125 -508 294.75 C-513.06332915 291.51509526 -514.42392714 286.16858859 -515.70703125 280.609375 C-516.16578768 278.42853035 -516.6172853 276.24614941 -517.0625 274.0625 C-519.54269651 262.69347623 -522.71726632 252.02426777 -527.25 241.3125 C-527.55131836 240.59304199 -527.85263672 239.87358398 -528.16308594 239.13232422 C-534.63809023 223.92462894 -543.46395556 208.09854444 -555.25 196.3125 C-559.95391081 234.65777295 -556.15445602 269.14855613 -535.06982422 302.11083984 C-530.01964334 310.02982658 -526.91462818 316.67459906 -528.25 326.3125 C-530.23968453 330.22325925 -531.61533646 331.88939098 -535.25 334.3125 C-536.57 334.3125 -537.89 334.3125 -539.25 334.3125 C-539.33507812 335.58480469 -539.42015625 336.85710937 -539.5078125 338.16796875 C-540.12689274 343.72339932 -542.01321004 348.48478731 -544.125 353.625 C-549.61778915 367.50823416 -552.4452928 380.25404579 -552.375 395.1875 C-552.37209961 396.68422241 -552.37209961 396.68422241 -552.36914062 398.21118164 C-552.31722249 407.26729049 -551.88147556 416.2801442 -551.25 425.3125 C-550.198125 425.415625 -549.14625 425.51875 -548.0625 425.625 C-543.40743848 426.46443732 -540.54848009 427.56379314 -537.6953125 431.40625 C-537.25960937 432.2003125 -536.82390625 432.994375 -536.375 433.8125 C-535.86710938 434.69679688 -535.35921875 435.58109375 -534.8359375 436.4921875 C-533.77864583 438.37239583 -532.72135417 440.25260417 -531.6640625 442.1328125 C-525.07023968 453.24634486 -515.59022431 458.82674784 -504.75390625 465.22265625 C-497.59636082 469.46833436 -491.85877375 473.02386441 -489.25 481.3125 C-488.875 484.6875 -488.875 484.6875 -489.25 487.3125 C-489.91 487.9725 -490.57 488.6325 -491.25 489.3125 C-492.075 488.549375 -492.9 487.78625 -493.75 487 C-497.29416068 484.01544364 -500.87110717 482.74696489 -505.25 481.3125 C-504.755 482.3025 -504.26 483.2925 -503.75 484.3125 C-501.58331864 489.34083599 -501.50494425 494.07733274 -503.25 499.3125 C-506.25 498.3125 -506.25 498.3125 -507.875 496.0625 C-511.09097716 492.33873697 -514.89692039 490.49834126 -519.25 488.3125 C-518.59 489.240625 -517.93 490.16875 -517.25 491.125 C-514.41904528 495.9695211 -514.89554841 500.86772975 -515.25 506.3125 C-519.25 506.3125 -519.25 506.3125 -521.75 503.9375 C-522.575 503.07125 -523.4 502.205 -524.25 501.3125 C-526.10146564 499.84445637 -526.10146564 499.84445637 -528.25 499.3125 C-529.19875 499.498125 -530.1475 499.68375 -531.125 499.875 C-535.0722166 500.42761032 -536.88815009 499.31360113 -540.25 497.3125 C-540.25 496.6525 -540.25 495.9925 -540.25 495.3125 C-540.91 495.3125 -541.57 495.3125 -542.25 495.3125 C-543.5455854 493.52548565 -544.7610177 491.68007897 -545.9375 489.8125 C-550.92724893 482.16155164 -556.27300083 476.00455829 -563.20703125 470.08984375 C-570.16629007 464.03542164 -577.64681118 456.99060265 -581.25 448.3125 C-581.21755089 446.33310422 -581.18265519 444.35357893 -581.1171875 442.375 C-581.14227222 440.01488371 -581.14227222 440.01488371 -582.8125 437 C-585.95429531 428.94061202 -582.78133752 418.98779324 -581.25 410.6875 C-577.96388763 392.73294403 -576.85816178 376.20702137 -580.81152344 358.26391602 C-582.42452532 350.86511457 -583.65954739 344.07129305 -580.9375 336.8125 C-579.50642427 334.69238781 -578.18650757 332.97236363 -576.25 331.3125 C-577.1575 330.94125 -578.065 330.57 -579 330.1875 C-582.72074161 328.0409183 -584.88405018 326.37198009 -586.25 322.3125 C-587.32202226 314.86303919 -586.22414913 307.83479958 -584.80883789 300.53344727 C-580.46387829 277.9202958 -579.90181906 252.81349698 -585.25 230.3125 C-585.43755859 229.4987793 -585.62511719 228.68505859 -585.81835938 227.84667969 C-587.89350752 218.99875838 -590.10580774 210.44739592 -594.25 202.3125 C-614.60528182 223.20862264 -626.23976827 250.20720751 -630.7824707 278.81616211 C-631.58164162 283.45948218 -632.21011813 286.41227352 -636.25 289.3125 C-638.25 289.4375 -638.25 289.4375 -640.25 288.3125 C-643.71903038 283.79098935 -645.42681684 279.46114085 -646.9375 274 C-647.15172607 273.24162842 -647.36595215 272.48325684 -647.58666992 271.7019043 C-648.99810165 266.56455776 -650.11204948 261.65578336 -650.25 256.3125 C-650.30027344 255.30574219 -650.35054687 254.29898438 -650.40234375 253.26171875 C-651.03143353 231.0422678 -643.80694001 209.55715682 -631.25 191.3125 C-631.90484375 191.33570313 -632.5596875 191.35890625 -633.234375 191.3828125 C-639.40647647 191.5048597 -645.08378186 190.98379662 -651.1328125 189.75 C-658.84226242 188.66797194 -665.64358794 189.63591723 -673.1875 191.3125 C-680.16181115 192.73777979 -686.9364136 193.74014629 -694.0625 193.8125 C-694.77204834 193.83054687 -695.48159668 193.84859375 -696.21264648 193.8671875 C-702.40811609 193.79659224 -707.83323044 191.72926956 -712.25 187.3125 C-715.83343976 187.14572718 -715.83343976 187.14572718 -719.25 187.3125 C-719.19972656 188.26640625 -719.14945313 189.2203125 -719.09765625 190.203125 C-719.0988727 195.03485522 -720.39053176 199.43914766 -721.6875 204.0625 C-721.91759766 204.91199219 -722.14769531 205.76148438 -722.38476562 206.63671875 C-723.27185064 209.89193508 -724.18283768 213.11101303 -725.25 216.3125 C-726.57 215.9825 -727.89 215.6525 -729.25 215.3125 C-729.25 208.3825 -729.25 201.4525 -729.25 194.3125 C-730.9 194.3125 -732.55 194.3125 -734.25 194.3125 C-734.52263672 195.88837891 -734.52263672 195.88837891 -734.80078125 197.49609375 C-736.13198537 204.99583528 -737.56589483 212.1548862 -740.25 219.3125 C-741.24 219.3125 -742.23 219.3125 -743.25 219.3125 C-744.79950268 217.76299732 -744.46655193 216.21259406 -744.56640625 214.05859375 C-744.60830078 213.20458984 -744.65019531 212.35058594 -744.69335938 211.47070312 C-744.73267578 210.57287109 -744.77199219 209.67503906 -744.8125 208.75 C-744.85568359 207.84830078 -744.89886719 206.94660156 -744.94335938 206.01757812 C-745.04978142 203.78271515 -745.15179988 201.54773692 -745.25 199.3125 C-745.848125 199.8075 -746.44625 200.3025 -747.0625 200.8125 C-749.25 202.3125 -749.25 202.3125 -752.25 202.3125 C-752.1571875 204.1378125 -752.1571875 204.1378125 -752.0625 206 C-752.03225495 212.31113441 -753.67301364 218.23922515 -755.25 224.3125 C-756.57 224.3125 -757.89 224.3125 -759.25 224.3125 C-759.58 217.3825 -759.91 210.4525 -760.25 203.3125 C-766.08333333 206.64583333 -766.08333333 206.64583333 -768.25 210.3125 C-768.94077321 213.83146508 -769.50036083 217.34160181 -770.01757812 220.88867188 C-770.754779 225.52774255 -771.88738942 229.17299567 -774.25 233.3125 C-775.24 232.9825 -776.23 232.6525 -777.25 232.3125 C-777.25 225.7125 -777.25 219.1125 -777.25 212.3125 C-783.65 212.5125 -783.65 212.5125 -785.25 214.3125 C-785.57754334 216.62019172 -785.86125675 218.93414914 -786.125 221.25 C-786.88347706 227.5100538 -788.14477115 233.34768494 -790.25 239.3125 C-791.57 238.9825 -792.89 238.6525 -794.25 238.3125 C-794.58 232.7025 -794.91 227.0925 -795.25 221.3125 C-797.23 221.3125 -799.21 221.3125 -801.25 221.3125 C-801.21519531 221.91835938 -801.18039062 222.52421875 -801.14453125 223.1484375 C-800.89647203 230.82646101 -801.92667321 237.82750981 -806.25 244.3125 C-806.91 244.3125 -807.57 244.3125 -808.25 244.3125 C-809.98277085 240.84695829 -809.71133876 236.88689556 -809.96875 233.0625 C-810.08187492 230.35384007 -810.08187492 230.35384007 -811.25 228.3125 C-811.95125 228.8075 -812.6525 229.3025 -813.375 229.8125 C-816.62119719 231.5061681 -818.64340156 231.56412315 -822.25 231.3125 C-822.3325 232.364375 -822.415 233.41625 -822.5 234.5 C-823.24189937 240.64558436 -825.32941803 246.45249174 -827.25 252.3125 C-828.57 252.3125 -829.89 252.3125 -831.25 252.3125 C-831.58 247.0325 -831.91 241.7525 -832.25 236.3125 C-838.46887074 241.48124468 -838.46887074 241.48124468 -840.9375 248.375 C-843.45221842 256.47222047 -843.45221842 256.47222047 -846.25 259.3125 C-847.24 259.3125 -848.23 259.3125 -849.25 259.3125 C-849.27712066 257.87510487 -849.29645067 256.43756137 -849.3125 255 C-849.32410156 254.19949219 -849.33570313 253.39898438 -849.34765625 252.57421875 C-849.25 250.3125 -849.25 250.3125 -848.25 247.3125 C-856.33232008 249.55085641 -856.33232008 249.55085641 -862.20703125 255.17578125 C-863.16417997 257.24413166 -864.05763103 259.34369277 -864.87109375 261.47265625 C-866.46993672 264.7654575 -868.27525224 266.2415988 -871.25 268.3125 C-873.25 265.3125 -873.25 265.3125 -873.0078125 263.05078125 C-872.79898437 262.25027344 -872.59015625 261.44976563 -872.375 260.625 C-872.17132812 259.81675781 -871.96765625 259.00851562 -871.7578125 258.17578125 C-871.59023438 257.56089844 -871.42265625 256.94601562 -871.25 256.3125 C-878.02509744 260.14555761 -880.49034408 264.23946858 -883.1640625 271.453125 C-884.47771071 274.9120836 -885.88650074 277.47630088 -888.25 280.3125 C-889.24 280.3125 -890.23 280.3125 -891.25 280.3125 C-891.25 277.0125 -891.25 273.7125 -891.25 270.3125 C-894.19820092 271.04955023 -895.87599771 271.50373635 -898.25 273.3125 C-899.55536478 276.00967756 -900.40103984 278.70926627 -901.28515625 281.5703125 C-902.63278496 285.40041514 -904.31718557 287.53008631 -907.25 290.3125 C-908.24 290.3125 -909.23 290.3125 -910.25 290.3125 C-910.46192221 285.12040596 -909.8412689 281.185761 -908.25 276.3125 C-913.26053763 278.38582592 -915.95841547 280.19685186 -918.1171875 285.20703125 C-919.65515848 289.19165252 -920.98473605 293.23394082 -922.25 297.3125 C-923.57 297.3125 -924.89 297.3125 -926.25 297.3125 C-926.25 294.3425 -926.25 291.3725 -926.25 288.3125 C-927.03375 288.8075 -927.8175 289.3025 -928.625 289.8125 C-931.25 291.3125 -931.25 291.3125 -933.25 291.3125 C-933.3325 292.158125 -933.415 293.00375 -933.5 293.875 C-934.40733853 298.03363491 -936.01541273 300.70832699 -938.25 304.3125 C-939.24 304.3125 -940.23 304.3125 -941.25 304.3125 C-940.92 301.0125 -940.59 297.7125 -940.25 294.3125 C-943.27285921 295.02376099 -944.8362404 295.44233502 -947.25 297.3125 C-949.36599548 301.16214524 -950.85115269 305.15463586 -952.25 309.3125 C-953.57 308.9825 -954.89 308.6525 -956.25 308.3125 C-956.25 305.6725 -956.25 303.0325 -956.25 300.3125 C-956.683125 300.9725 -957.11625 301.6325 -957.5625 302.3125 C-958.119375 302.9725 -958.67625 303.6325 -959.25 304.3125 C-960.24 304.3125 -961.23 304.3125 -962.25 304.3125 C-962.5903125 305.55 -962.5903125 305.55 -962.9375 306.8125 C-964.48771321 310.94640189 -966.36059793 314.93438601 -969.25 318.3125 C-970.24 318.3125 -971.23 318.3125 -972.25 318.3125 C-971.92 315.6725 -971.59 313.0325 -971.25 310.3125 C-973.23 309.9825 -975.21 309.6525 -977.25 309.3125 C-977.4975 310.158125 -977.745 311.00375 -978 311.875 C-979.38973627 315.69677474 -981.16120838 318.83118063 -983.25 322.3125 C-984.57 321.9825 -985.89 321.6525 -987.25 321.3125 C-986.92 318.6725 -986.59 316.0325 -986.25 313.3125 C-994.91771715 316.64623737 -998.015799 321.19116366 -1002.25 329.3125 C-1003.24 329.3125 -1004.23 329.3125 -1005.25 329.3125 C-1005.25 326.6725 -1005.25 324.0325 -1005.25 321.3125 C-1007.89 321.3125 -1010.53 321.3125 -1013.25 321.3125 C-1013.4975 322.158125 -1013.745 323.00375 -1014 323.875 C-1015.38973627 327.69677474 -1017.16120838 330.83118063 -1019.25 334.3125 C-1020.57 333.9825 -1021.89 333.6525 -1023.25 333.3125 C-1023.25 331.6625 -1023.25 330.0125 -1023.25 328.3125 C-1026.55 328.6425 -1029.85 328.9725 -1033.25 329.3125 C-1033.518125 330.075625 -1033.78625 330.83875 -1034.0625 331.625 C-1035.21131822 334.22495703 -1035.92278944 335.70135423 -1038.25 337.3125 C-1040.4375 337 -1040.4375 337 -1042.25 336.3125 C-1041.74396008 334.14375748 -1041.25016187 332.31282373 -1040.25 330.3125 C-1043.73345286 330.20235129 -1046.89012176 330.34175674 -1050.25 331.3125 C-1052.22276279 333.27282941 -1053.5187234 335.18950495 -1054.8984375 337.59765625 C-1055.34445312 338.16355469 -1055.79046875 338.72945312 -1056.25 339.3125 C-1057.57 339.3125 -1058.89 339.3125 -1060.25 339.3125 C-1059.92 337.6625 -1059.59 336.0125 -1059.25 334.3125 C-1059.78262451 334.5283374 -1060.31524902 334.7441748 -1060.86401367 334.96655273 C-1069.0561689 337.88151646 -1077.01409845 337.58844444 -1085.5625 337.375 C-1087.7264086 337.32694534 -1089.89002038 337.28368572 -1092.054245 337.25279236 C-1094.00421776 337.22425251 -1095.95392751 337.17914468 -1097.90356445 337.13305664 C-1101.2017949 337.30991513 -1103.2714862 337.97681619 -1106.25 339.3125 C-1110.42561192 339.70642565 -1112.84291785 339.49753734 -1116.6875 337.75 C-1120.91547748 335.94628358 -1124.78872425 336.43203284 -1129.25 336.875 C-1134.80571314 337.40654185 -1138.2477954 337.38423771 -1142.9453125 334.2734375 C-1146.39413342 332.83545454 -1149.88369334 333.08911484 -1153.5625 333.0625 C-1162.14818683 332.88868562 -1166.90666874 330.1851625 -1173.25 324.3125 C-1174.64412237 323.14378933 -1176.03972976 321.97684538 -1177.4375 320.8125 C-1178.365625 319.9875 -1179.29375 319.1625 -1180.25 318.3125 C-1179.92 316.6625 -1179.59 315.0125 -1179.25 313.3125 C-1175.19104165 313.84192935 -1171.15407316 314.4637144 -1167.125 315.1875 C-1165.91457031 315.40019531 -1165.91457031 315.40019531 -1164.6796875 315.6171875 C-1162.25 316.3125 -1162.25 316.3125 -1159.90625 317.8828125 C-1156.37803381 319.78182298 -1153.85045352 319.50603121 -1149.875 319.3125 C-1141.84224816 319.04870339 -1141.84224816 319.04870339 -1138.3125 320.875 C-1134.23846328 322.78730295 -1131.54395386 322.18656571 -1127.25 321.3125 C-1122.01667851 320.31997351 -1119.22733676 320.54969323 -1114.25 322.3125 C-1110.74348303 322.55857137 -1108.15607541 322.69901297 -1104.90405273 321.31176758 C-1101.87890565 320.17278064 -1099.5729915 320.07293977 -1096.34765625 320.07421875 C-1095.21666504 320.06156982 -1094.08567383 320.0489209 -1092.92041016 320.03588867 C-1091.7297998 320.02404541 -1090.53918945 320.01220215 -1089.3125 320 C-1078.78036898 319.75845013 -1070.88375701 318.64641971 -1061.25 314.3125 C-1054.02416545 311.70571159 -1046.94833519 310.04629881 -1039.375 308.9375 C-1024.88520278 306.67938883 -1013.10964702 300.24431402 -1000.39227295 293.26473999 C-990.96554192 288.10319292 -981.39455054 283.5660138 -971.5 279.375 C-970.21646028 278.82945315 -968.9329315 278.28388055 -967.64941406 277.73828125 C-965.2419229 276.71594292 -962.83412736 275.69432646 -960.42626953 274.67285156 C-945.67167933 268.35366812 -933.13783448 260.12119345 -920.40625 250.37890625 C-911.20166373 243.3780826 -901.7693188 238.25907444 -891.296875 233.40771484 C-884.70536181 230.33468977 -878.91833929 227.55426081 -874 222.0703125 C-867.96038097 216.00373089 -859.8999699 212.52857582 -852.0546875 209.44140625 C-849.52382853 208.42271789 -847.11536577 207.30311273 -844.6875 206.0625 C-841.25 204.3125 -841.25 204.3125 -838.25 203.3125 C-837.54848848 201.9971659 -836.88474075 200.66132408 -836.25 199.3125 C-833.65835259 195.85105312 -830.59124535 195.49312662 -826.5 194.5625 C-820.66411068 193.01187235 -817.51224103 191.39296785 -813.61328125 186.85546875 C-811.21907511 184.14569389 -808.5647634 183.56533912 -805.1171875 182.90234375 C-799.06855686 181.71457635 -795.59995349 180.07251249 -791.50390625 175.26171875 C-788.67964205 172.81924416 -786.66369532 172.56865413 -783 172 C-778.33402431 171.06266193 -775.62913016 170.24424096 -772.3125 166.8125 C-768.03533387 162.46283953 -763.5203304 162.18719087 -757.67578125 161.1953125 C-752.4374344 159.84540784 -749.16940296 156.88391859 -745.25 153.3125 C-742.66240886 152.01870443 -740.30895576 151.9165636 -737.4375 151.5625 C-733.68547637 150.92366624 -731.37215847 150.38435792 -728.0625 148.4375 C-725.71250595 144.38578612 -725.75764544 141.05596691 -725.53125 136.4375 C-724.71022265 127.31497392 -720.02664654 120.27400235 -713.25 114.3125 C-707.46134329 110.12987779 -701.23583718 109.94828758 -694.32836914 109.6628418 C-684.5166772 109.2292833 -676.24008453 106.44872526 -667.24902344 102.64355469 C-662.23876308 100.57183364 -657.18931023 99.19340502 -651.9375 97.875 C-635.22848644 93.51872146 -626.67725143 81.97977599 -617.72509766 67.9597168 C-608.7459765 54.03677936 -595.71026485 42.04761589 -579.09765625 38.30078125 C-576.89374247 37.82954888 -574.68713313 37.37492569 -572.47827148 36.92749023 C-566.64407891 35.64963699 -562.48566968 33.23061779 -557.58203125 29.8046875 C-551.95975989 26.20718723 -547.17846726 27.29232637 -540.875 28.5 C-535.03404682 29.53313969 -531.80321883 28.7983681 -526.52734375 26.29296875 C-522.76451591 24.67295196 -520.31503779 24.70274433 -516.25 25.3125 C-509.72420293 29.32837512 -507.18618104 35.05241929 -505.0703125 42.2109375 C-504.86156494 42.91436279 -504.65281738 43.61778809 -504.43774414 44.3425293 C-504.02894307 45.7531404 -503.63674888 47.16869825 -503.26342773 48.58911133 C-501.90032968 53.39398835 -500.15099497 56.19170403 -496.25 59.3125 C-492.56558496 60.19777109 -492.56558496 60.19777109 -489.25 60.3125 C-490.78865976 56.2297244 -492.70177295 52.3997581 -494.7265625 48.54296875 C-495.40450352 47.22895778 -496.08155961 45.91448994 -496.7578125 44.59960938 C-497.81426658 42.54825413 -498.87507063 40.49986603 -499.95117188 38.45874023 C-500.9956792 36.47345762 -502.01885486 34.4783245 -503.0390625 32.48046875 C-503.36089508 31.88123093 -503.68272766 31.2819931 -504.01431274 30.66459656 C-506.39664149 25.93100512 -506.67208331 22.48557762 -506.25 17.3125 C-504.18095202 14.20892804 -502.82231176 13.47942426 -499.25 12.4375 C-495.98616286 12.30150679 -494.93221045 12.55539463 -492.25 14.3125 C-490.82128906 16.39697266 -490.82128906 16.39697266 -489.515625 18.9765625 C-489.02739258 19.92716553 -488.53916016 20.87776855 -488.03613281 21.85717773 C-487.52920898 22.87368408 -487.02228516 23.89019043 -486.5 24.9375 C-485.9750293 25.9675415 -485.45005859 26.99758301 -484.90917969 28.05883789 C-483.34392429 31.13741285 -481.795119 34.22377881 -480.25 37.3125 C-479.39619442 39.00669244 -478.54206025 40.70071935 -477.6875 42.39453125 C-475.86006568 46.02657664 -474.04923298 49.66640728 -472.25 53.3125 C-471.59 53.3125 -470.93 53.3125 -470.25 53.3125 C-472.18035131 45.99554931 -474.84767684 39.01588542 -477.64868164 31.99853516 C-484.0912875 15.78419821 -484.0912875 15.78419821 -482.25 11.3125 C-480.45149293 8.51482234 -479.1555558 8.28801447 -475.875 7.4375 C-471.6460489 7.2916741 -470.504705 7.6831084 -467.25 10.3125 C-465.93034 12.99037187 -464.90408333 15.4500765 -463.9375 18.25 C-463.34646141 19.8637981 -462.75395429 21.47705895 -462.16015625 23.08984375 C-461.70020264 24.35997314 -461.70020264 24.35997314 -461.23095703 25.65576172 C-459.53676766 30.24415612 -457.70185723 34.77567394 -455.875 39.3125 C-455.35619263 40.61175415 -455.35619263 40.61175415 -454.8269043 41.93725586 C-453.1540441 46.17627156 -453.1540441 46.17627156 -451.25 50.3125 C-450.59 49.9825 -449.93 49.6525 -449.25 49.3125 C-449.49758057 48.44036865 -449.74516113 47.5682373 -450.00024414 46.66967773 C-450.91877511 43.40920699 -451.82485206 40.14578416 -452.72290039 36.87963867 C-453.11287392 35.47105104 -453.50765754 34.0637854 -453.9074707 32.65795898 C-454.48380732 30.62818921 -455.04224744 28.59417603 -455.59765625 26.55859375 C-455.93804932 25.33841553 -456.27844238 24.1182373 -456.62915039 22.86108398 C-457.39475157 18.48514488 -457.42597307 14.3877466 -455.1875 10.4375 C-452.13534646 8.66528181 -448.7661518 7.83333152 -445.25 8.3125 C-441.32877706 11.23011926 -440.45721645 14.15381585 -439.375 18.8125 C-439.05300532 20.14148429 -438.72726696 21.46956531 -438.3984375 22.796875 C-438.22151367 23.51423828 -438.04458984 24.23160156 -437.86230469 24.97070312 C-436.47869493 30.26240359 -434.80493991 35.47556984 -433.18017578 40.69726562 C-432.80481689 41.92219727 -432.80481689 41.92219727 -432.421875 43.171875 C-432.1959668 43.89858398 -431.97005859 44.62529297 -431.73730469 45.37402344 C-431.25 47.3125 -431.25 47.3125 -431.25 50.3125 C-430.528125 49.9825 -429.80625 49.6525 -429.0625 49.3125 C-426.21243809 48.29914465 -424.23667749 48.23218598 -421.25 48.3125 C-421.40670166 47.37978271 -421.56340332 46.44706543 -421.72485352 45.48608398 C-422.30533362 42.00038652 -422.87634644 38.51340273 -423.44116211 35.02514648 C-423.68677549 33.52030025 -423.93606641 32.01604918 -424.18920898 30.51245117 C-424.55397822 28.34182242 -424.905143 26.1693446 -425.25390625 23.99609375 C-425.36843643 23.33226181 -425.48296661 22.66842987 -425.60096741 21.98448181 C-426.29668314 17.53892994 -426.29550986 13.69778573 -425.25 9.3125 C-421.5126144 6.8209096 -419.67668417 6.85456715 -415.25 7.3125 C-412.4375 8.8125 -412.4375 8.8125 -410.25 11.3125 C-408.7487623 16.52900604 -407.78351843 21.72532711 -406.9609375 27.09375 C-406.85278717 27.79270386 -406.74463684 28.49165771 -406.63320923 29.21179199 C-406.29365134 31.41150843 -405.95923343 33.61196894 -405.625 35.8125 C-405.39357099 37.31776093 -405.16180309 38.82296979 -404.9296875 40.328125 C-404.36587959 43.98899077 -403.80667364 47.65054177 -403.25 51.3125 C-400.94 50.9825 -398.63 50.6525 -396.25 50.3125 C-396.58 49.6525 -396.91 48.9925 -397.25 48.3125 C-397.54290435 46.22024726 -397.7856991 44.12088798 -398.00390625 42.01953125 C-398.13603516 40.74916016 -398.26816406 39.47878906 -398.40429688 38.16992188 C-398.47124756 37.50532959 -398.53819824 36.8407373 -398.60717773 36.15600586 C-398.81001234 34.14960741 -399.02073355 32.14415319 -399.23242188 30.13867188 C-400.94761265 13.40077573 -400.94761265 13.40077573 -398.6875 9.875 C-395.29295632 7.69901046 -393.2134351 7.75622841 -389.25 8.3125 C-386.2864564 9.76134354 -384.7616623 10.96571072 -383.5703125 14.1015625 C-380.99142112 25.32965882 -380.03189503 37.79967324 -380.25 49.3125 C-378.27 49.6425 -376.29 49.9725 -374.25 50.3125 C-374.29600342 49.27843018 -374.34200684 48.24436035 -374.3894043 47.17895508 C-374.55636321 43.33103179 -374.70231832 39.48254548 -374.84204102 35.63354492 C-374.90534832 33.96990665 -374.97429949 32.30647294 -375.04907227 30.64331055 C-375.15576017 28.24820299 -375.24191829 25.85308577 -375.32421875 23.45703125 C-375.36157639 22.7172554 -375.39893402 21.97747955 -375.43742371 21.21528625 C-375.56851624 16.68084095 -375.09423104 13.88872957 -372.25 10.3125 C-369.25 8.3125 -369.25 8.3125 -365.75 8.5 C-362.37237466 9.2840916 -361.21686015 9.58074979 -359.25 12.3125 C-357.64312512 15.52624977 -357.88571544 19.06331667 -357.71484375 22.6015625 C-357.67186661 23.41998627 -357.62888947 24.23841003 -357.58460999 25.08163452 C-357.44807263 27.70006037 -357.31771791 30.318753 -357.1875 32.9375 C-357.09610963 34.71095849 -357.00431784 36.48439635 -356.91210938 38.2578125 C-356.68674476 42.60914907 -356.46692517 46.96073487 -356.25 51.3125 C-355.13625 51.456875 -354.0225 51.60125 -352.875 51.75 C-349.25 52.3125 -349.25 52.3125 -347.25 53.3125 C-347.41193848 52.27843018 -347.57387695 51.24436035 -347.74072266 50.17895508 C-348.33944189 46.33249098 -348.9203971 42.48351629 -349.49609375 38.63354492 C-349.74745687 36.969398 -350.00359614 35.30596507 -350.26464844 33.64331055 C-350.639625 31.24961473 -350.99720108 28.85385465 -351.3515625 26.45703125 C-351.47125397 25.7172554 -351.59094543 24.97747955 -351.71426392 24.21528625 C-352.31857005 19.99379357 -352.42635862 17.04865441 -350.25 13.3125 C-347.00319346 11.09876827 -345.00115325 10.3125 -341.0625 10.3125 C-338.25 11.3125 -338.25 11.3125 -336.703125 13.1953125 C-334.59704441 17.71319506 -333.96618849 22.28818548 -333.1875 27.1875 C-333.01250977 28.20948486 -332.83751953 29.23146973 -332.65722656 30.28442383 C-331.89010011 34.85659822 -331.19312306 39.39614002 -330.83203125 44.01953125 C-330.62999552 50.7014363 -330.62999552 50.7014363 -327.3515625 56.109375 C-325.30474134 57.15792198 -323.49617391 57.84759424 -321.25 58.3125 C-321.40339844 57.68472656 -321.55679688 57.05695313 -321.71484375 56.41015625 C-322.88917629 49.61274237 -322.87901872 42.62846731 -323.15039062 35.74560547 C-323.23602168 33.6539409 -323.34253937 31.56315001 -323.453125 29.47265625 C-323.48921875 28.42980469 -323.5253125 27.38695312 -323.5625 26.3125 C-323.59988281 25.425625 -323.63726563 24.53875 -323.67578125 23.625 C-323.08715389 20.42805141 -321.79213933 19.27141647 -319.25 17.3125 C-316.51037712 16.58478767 -314.01785861 16.73278423 -311.25 17.3125 C-308.81880377 19.18265094 -307.60930827 20.59388345 -306.25 23.3125 C-306.02287781 26.15255386 -305.84856352 28.97556966 -305.71484375 31.8203125 C-305.67186661 32.66093231 -305.62888947 33.50155212 -305.58460999 34.36764526 C-305.44805927 37.05740549 -305.31771128 39.74742615 -305.1875 42.4375 C-305.09611092 44.25913509 -305.00431916 46.08075002 -304.91210938 47.90234375 C-304.6867299 52.37217522 -304.46691353 56.84225002 -304.25 61.3125 C-300.95 60.9825 -297.65 60.6525 -294.25 60.3125 C-294.00765625 59.40371094 -293.7653125 58.49492187 -293.515625 57.55859375 C-292.99679719 55.61298948 -292.47772281 53.66744511 -291.953125 51.72338867 C-291.00431756 48.19707006 -290.08585588 44.66836366 -289.234375 41.1171875 C-289.06905273 40.4476001 -288.90373047 39.7780127 -288.73339844 39.08813477 C-288.27173325 37.21326113 -287.82304194 35.33520705 -287.375 33.45703125 C-286.16357288 30.07092419 -285.08531391 28.49065704 -282.25 26.3125 C-278.18187045 25.72077207 -275.97999792 25.93973511 -272.3125 27.8125 C-269.94435159 30.68298292 -269.89454256 32.21189247 -269.98999023 35.84716797 C-270.52166688 40.88836116 -271.93652037 45.74086741 -273.25 50.625 C-273.81553299 52.76612828 -274.37817233 54.90802358 -274.9375 57.05078125 C-275.18886719 57.98962158 -275.44023438 58.92846191 -275.69921875 59.89575195 C-276.36110215 62.3868808 -276.36110215 62.3868808 -276.25 65.3125 C-275.404375 65.209375 -274.55875 65.10625 -273.6875 65 C-270.11928254 65.32438341 -269.27039228 65.76678169 -266.53515625 67.83203125 C-265.91648682 68.29327393 -265.29781738 68.7545166 -264.66040039 69.22973633 C-264.19496826 69.58704834 -263.72953613 69.94436035 -263.25 70.3125 C-263.11424561 69.57201416 -262.97849121 68.83152832 -262.83862305 68.06860352 C-262.21155261 64.66947306 -261.57460111 61.27226408 -260.9375 57.875 C-260.72416016 56.71033203 -260.51082031 55.54566406 -260.29101562 54.34570312 C-257.55911587 39.87071187 -257.55911587 39.87071187 -255.25 35.3125 C-251.59948082 32.87882055 -250.25460046 33.17264323 -246.12109375 33.84765625 C-244.25 34.3125 -244.25 34.3125 -242.3125 35.4375 C-239.509469 40.3840253 -240.24571085 45.68163509 -241.5 50.98046875 C-241.91765625 52.81448242 -241.91765625 52.81448242 -242.34375 54.68554688 C-242.6428125 55.94431641 -242.941875 57.20308594 -243.25 58.5 C-243.84145852 61.012424 -244.42515508 63.52669157 -245 66.04296875 C-245.39445312 67.70428833 -245.39445312 67.70428833 -245.796875 69.39916992 C-246.39609414 72.99836756 -246.39609414 72.99836756 -245.25 76.3125 C-242.75965614 77.60910434 -242.75965614 77.60910434 -240.25 78.3125 C-239.69856323 76.8898584 -239.69856323 76.8898584 -239.13598633 75.43847656 C-237.76239914 71.90646808 -236.36936468 68.38240032 -234.97045898 64.86035156 C-234.36880585 63.33769513 -233.77237967 61.81296219 -233.18139648 60.28613281 C-232.32876227 58.08606403 -231.45732941 55.89425941 -230.58203125 53.703125 C-230.32347855 53.0238092 -230.06492584 52.34449341 -229.79853821 51.64459229 C-228.04100042 47.314102 -226.22641836 44.79433486 -222.25 42.3125 C-218.2865649 41.75622841 -216.20704368 41.69901046 -212.8125 43.875 C-210.66568695 47.22402837 -210.98016576 49.36550796 -211.25 53.3125 C-212.33569336 56.8293457 -212.33569336 56.8293457 -213.83984375 60.48828125 C-214.10382462 61.13951462 -214.36780548 61.79074799 -214.63978577 62.4617157 C-215.47771997 64.52098474 -216.33233158 66.57283701 -217.1875 68.625 C-217.7582595 70.02103595 -218.32793155 71.41751703 -218.89648438 72.81445312 C-222.88997013 82.59244027 -222.88997013 82.59244027 -224.25 85.3125 C-220.95 85.9725 -217.65 86.6325 -214.25 87.3125 C-213.90743164 86.44971436 -213.56486328 85.58692871 -213.21191406 84.69799805 C-211.9317267 81.49039827 -210.64093695 78.28750238 -209.34277344 75.0871582 C-208.7837905 73.70281721 -208.22905335 72.31675375 -207.67871094 70.92895508 C-206.88553919 68.93099267 -206.07715582 66.93978289 -205.265625 64.94921875 C-204.54294434 63.15037231 -204.54294434 63.15037231 -203.80566406 61.31518555 C-202.23961969 58.29246431 -201.16605342 56.98742932 -198.25 55.3125 C-194.30617724 54.45749155 -191.16563488 54.77651861 -187.6875 56.8125 C-185.59096111 60.45865459 -186.30059973 63.3820948 -187.25 67.3125 C-188.91914231 72.05672303 -190.85345485 76.68247142 -192.8125 81.3125 C-193.33879354 82.57644733 -193.86419198 83.84076776 -194.38867188 85.10546875 C-195.66704512 88.17825582 -196.95434268 91.24697032 -198.25 94.3125 C-196.93 94.9725 -195.61 95.6325 -194.25 96.3125 C-193.68285278 95.12491089 -193.68285278 95.12491089 -193.10424805 93.91333008 C-191.69166255 90.95844289 -190.27686886 88.00463407 -188.8605957 85.05151367 C-188.24968971 83.7765443 -187.63965034 82.5011593 -187.03051758 81.2253418 C-186.15156464 79.38478703 -185.26943952 77.5457814 -184.38671875 75.70703125 C-183.85780029 74.60206299 -183.32888184 73.49709473 -182.78393555 72.35864258 C-179.97356654 66.77771403 -179.97356654 66.77771403 -178.25 64.3125 C-174.875 63.25 -174.875 63.25 -171.25 63.3125 C-168.44810554 65.07891172 -166.73475089 66.34299822 -165.25 69.3125 C-165.31312448 77.97858989 -168.94808399 84.65770191 -172.8125 92.25 C-174.02792885 94.67295092 -175.23501314 97.09986172 -176.44140625 99.52734375 C-177.24880249 101.12243774 -177.24880249 101.12243774 -178.07250977 102.74975586 C-179.38916801 105.14534025 -179.38916801 105.14534025 -179.25 107.3125 C-177.46034453 108.67527086 -177.46034453 108.67527086 -175.25 109.9375 C-174.5075 110.38351562 -173.765 110.82953125 -173 111.2890625 C-172.13375 111.79566406 -172.13375 111.79566406 -171.25 112.3125 C-170.83681519 111.00478638 -170.83681519 111.00478638 -170.4152832 109.6706543 C-168.54185188 104.27173373 -165.96203058 99.24427181 -163.4375 94.125 C-162.91607422 93.03251953 -162.39464844 91.94003906 -161.85742188 90.81445312 C-161.34115234 89.76837891 -160.82488281 88.72230469 -160.29296875 87.64453125 C-159.59723755 86.21717651 -159.59723755 86.21717651 -158.88745117 84.76098633 C-156.9897013 81.92327447 -155.31652006 80.76333649 -152.25 79.3125 C-148.63818562 79.3125 -147.30938374 80.26631265 -144.4375 82.5 C-141.78207677 85.91411558 -141.83856285 87.08328634 -142.25 91.3125 C-143.42749023 94.33276367 -143.42749023 94.33276367 -145.05859375 97.48046875 C-145.93161133 99.19073242 -145.93161133 99.19073242 -146.82226562 100.93554688 C-147.44354302 102.12394238 -148.06529281 103.31209104 -148.6875 104.5 C-149.89824576 106.84576051 -151.10306463 109.1945181 -152.30859375 111.54296875 C-152.84798584 112.57832764 -153.38737793 113.61368652 -153.94311523 114.68041992 C-155.32950614 117.31991464 -155.32950614 117.31991464 -156.25 120.3125 C-154.27 120.6425 -152.29 120.9725 -150.25 121.3125 C-149.04091013 119.35463367 -147.83277563 117.39617734 -146.625 115.4375 C-146.26325684 114.85121826 -145.90151367 114.26493652 -145.52880859 113.66088867 C-142.79239802 109.21708827 -140.11490036 104.74114279 -137.4765625 100.23828125 C-136.25 98.3125 -136.25 98.3125 -134.25 96.3125 C-129.90874764 95.73912705 -127.93638649 95.83056906 -124.3125 98.375 C-121.67498902 102.13145503 -121.7774902 103.77269994 -122.25 108.3125 C-123.41476522 111.2143262 -124.94503289 113.82929849 -126.5625 116.5 C-126.96662109 117.19802734 -127.37074219 117.89605469 -127.78710938 118.61523438 C-129.76644591 121.99780787 -131.79988154 125.24390503 -134.25 128.3125 C-130.785 130.2925 -130.785 130.2925 -127.25 132.3125 C-127.0025 131.48363281 -126.755 130.65476562 -126.5 129.80078125 C-125.0717372 125.81503539 -123.25343069 122.2201385 -121.25 118.5 C-120.89421875 117.82001953 -120.5384375 117.14003906 -120.171875 116.43945312 C-117.49842687 111.43671344 -117.49842687 111.43671344 -115.25 110.3125 C-111.27642355 109.78268981 -109.70829619 109.99368526 -106.375 112.3125 C-103.71771473 116.06396155 -103.55886943 118.89836566 -104.25 123.3125 C-105.46433648 126.64166087 -107.0625575 129.70111953 -108.75 132.8125 C-109.39388672 134.04613281 -109.39388672 134.04613281 -110.05078125 135.3046875 C-111.10290733 137.31541734 -112.16924214 139.31705818 -113.25 141.3125 C-109.785 142.3025 -109.785 142.3025 -106.25 143.3125 C-106.023125 142.4875 -105.79625 141.6625 -105.5625 140.8125 C-103.52829402 135.38795072 -101.13070498 130.56630332 -96.25 127.3125 C-92.8824398 127.49290501 -90.25886394 127.67355284 -87.375 129.5 C-85.75126499 132.11601751 -85.50892475 134.24551805 -85.25 137.3125 C-86.24609375 140.5234375 -86.24609375 140.5234375 -87.6875 143.6875 C-88.16058594 144.74710938 -88.63367187 145.80671875 -89.12109375 146.8984375 C-89.49363281 147.69507813 -89.86617187 148.49171875 -90.25 149.3125 C-88.6 150.3025 -86.95 151.2925 -85.25 152.3125 C-85.14042969 151.62542969 -85.03085938 150.93835938 -84.91796875 150.23046875 C-84.75941406 149.32941406 -84.60085938 148.42835938 -84.4375 147.5 C-84.28667969 146.60667969 -84.13585938 145.71335937 -83.98046875 144.79296875 C-83.18328457 142.08595295 -82.4708495 141.01079668 -80.25 139.3125 C-77.5625 138.625 -77.5625 138.625 -75.25 138.3125 C-75.40984375 137.23742187 -75.5696875 136.16234375 -75.734375 135.0546875 C-79.9875022 100.71294766 -70.94564612 67.82300359 -50.25 40.3125 C-49.59902344 39.43722656 -48.94804688 38.56195313 -48.27734375 37.66015625 C-38.02657934 24.52574713 -18.41669758 -0.36720409 0 0 Z M-449.25 89.3125 C-448.25 91.3125 -448.25 91.3125 -448.25 91.3125 Z M-450.25 91.3125 C-449.25 94.3125 -449.25 94.3125 -449.25 94.3125 Z M-176.25 174.3125 C-175.8287691 185.89634984 -167.89716755 193.28521009 -160.25 201.3125 C-159.73373047 201.86131836 -159.21746094 202.41013672 -158.68554688 202.97558594 C-147.97975475 214.30118708 -137.00100696 222.98583457 -122.71728516 229.48779297 C-117.8963219 231.73595465 -113.63670434 234.28749517 -111.32421875 239.33203125 C-110.96614583 240.9921875 -110.60807292 242.65234375 -110.25 244.3125 C-109.92 244.3125 -109.59 244.3125 -109.25 244.3125 C-108.755 239.3625 -108.755 239.3625 -108.25 234.3125 C-109.10851563 233.82910156 -109.96703125 233.34570312 -110.8515625 232.84765625 C-115.15183721 229.97366033 -117.72676763 225.95733524 -120.625 221.75 C-121.19589355 220.94224121 -121.76678711 220.13448242 -122.35498047 219.30224609 C-123.99639095 216.97896886 -125.62560689 214.64769644 -127.25 212.3125 C-138.5026853 196.16135554 -152.22605054 179.56499636 -172.375 175 C-173.65375 174.773125 -174.9325 174.54625 -176.25 174.3125 Z M121.875 179.25 C116.81849903 182.58729064 113.49798502 185.89254848 111.6875 191.75 C113.22369897 196.90078477 116.59607243 198.42743439 120.96875 201.3125 C124.58344478 203.91183108 126.46685674 206.53350425 128.75 210.3125 C131.1352733 210.44065365 131.1352733 210.44065365 133.75 209.3125 C135.42198768 206.78582213 136.60805571 204.11313432 137.75 201.3125 C137.35167969 200.88582031 136.95335937 200.45914063 136.54296875 200.01953125 C132.02884699 194.69264791 130.68321997 189.92435228 129.5859375 183.0703125 C129.01755327 180.22099359 129.01755327 180.22099359 126.84375 178.87109375 C124.60640312 178.07061356 124.60640312 178.07061356 121.875 179.25 Z M217.75 259.3125 C219.70284829 265.47938932 222.00958645 271.36797088 224.56640625 277.30859375 C225.67773308 280.12908991 226.45638939 282.87507928 227.1875 285.8125 C228.12573872 289.16643382 228.92001026 290.9393066 231.8125 292.9375 C234.51133296 294.45381337 234.51133296 294.45381337 236.75 294.3125 C239.23737419 288.18289933 241.08867226 281.94261696 239.75 275.3125 C237.07464351 270.14584103 233.94619112 267.90241013 228.75 265.625 C224.80931032 263.82365963 221.11420642 262.09638081 217.75 259.3125 Z M-81.625 372.3125 C-82.16125 372.9725 -82.6975 373.6325 -83.25 374.3125 C-81.95251634 379.65782191 -79.90181542 381.86784883 -75.6875 385.3125 C-66.29353802 393.41673457 -60.70651057 403.72080026 -55.5390625 414.88671875 C-54.30572616 417.20763349 -53.31409886 418.70239731 -51.25 420.3125 C-48.20769177 420.81260524 -48.20769177 420.81260524 -45.25 420.3125 C-42.73779322 416.54418982 -42.70939689 414.77958889 -43.25 410.3125 C-44.91554746 408.04237659 -46.37572785 406.34868716 -48.375 404.4375 C-49.39605807 403.39073243 -50.41300301 402.33993687 -51.42578125 401.28515625 C-52.16175537 400.52356201 -52.16175537 400.52356201 -52.91259766 399.74658203 C-58.43979627 393.81982689 -61.57463394 386.73337855 -64.66015625 379.328125 C-66.71671571 375.42723089 -69.25511075 372.30994463 -73.25 370.3125 C-77.07729203 369.89649 -78.62252308 369.78409839 -81.625 372.3125 Z M-129.25 397.4375 C-130.4366473 399.35537344 -130.4366473 399.35537344 -130.4375 402 C-128.65424948 406.97433041 -125.10266633 409.81207745 -121.25 413.3125 C-113.62285833 420.38155813 -108.64994553 429.03231089 -104.00268555 438.22216797 C-101.73775758 442.74754092 -101.73775758 442.74754092 -98.25 446.3125 C-95.39519831 446.74072025 -93.90507108 446.71909584 -91.4375 445.1875 C-89.58929817 442.26928658 -89.66965165 440.73010694 -90.25 437.3125 C-92.88775648 432.72843777 -95.44293234 429.56929176 -100.25 427.3125 C-101.1875 425.625 -101.1875 425.625 -102.25 423.3125 C-102.9925 422.36375 -103.735 421.415 -104.5 420.4375 C-107.08829566 416.94859855 -108.53601199 413.28195085 -110.125 409.25 C-112.46358483 403.63380779 -114.56059874 399.01527413 -120.25 396.3125 C-123.91799592 395.76230061 -126.00321022 395.61118075 -129.25 397.4375 Z M-467.25 426.3125 C-465.04081882 431.29124002 -461.32167016 435.05049598 -456.234375 437.140625 C-454.59278114 437.6077452 -452.92229095 437.97121613 -451.25 438.3125 C-455.48209586 433.80736569 -460.13695859 429.798208 -465.25 426.3125 C-465.91 426.3125 -466.57 426.3125 -467.25 426.3125 Z M-476.25 437.3125 C-474.89745459 441.71967044 -473.17578421 443.51360614 -469.375 446.0625 C-468.51132812 446.65546875 -467.64765625 447.2484375 -466.7578125 447.859375 C-464.51205223 449.16065665 -462.78356817 449.86470656 -460.25 450.3125 C-464.28364574 445.14821113 -468.63471604 440.76514081 -474.25 437.3125 C-474.91 437.3125 -475.57 437.3125 -476.25 437.3125 Z M-540.25 455.3125 C-536.86536257 460.82820544 -533.77169589 464.7235399 -527.4375 466.5625 C-526.385625 466.81 -525.33375 467.0575 -524.25 467.3125 C-527.42193165 464.04994173 -530.64357857 461.08667033 -534.25 458.3125 C-535.3328125 457.44625 -535.3328125 457.44625 -536.4375 456.5625 C-538.1574477 455.12325568 -538.1574477 455.12325568 -540.25 455.3125 Z M-549.25 466.3125 C-546.77354035 471.76071123 -542.17446661 475.13762724 -537.25 478.3125 C-535.08025197 479.03295298 -535.08025197 479.03295298 -533.25 479.3125 C-537.28364574 474.14821113 -541.63471604 469.76514081 -547.25 466.3125 C-547.91 466.3125 -548.57 466.3125 -549.25 466.3125 Z M-522.25 486.3125 C-521.92 486.9725 -521.59 487.6325 -521.25 488.3125 C-520.59 487.9825 -519.93 487.6525 -519.25 487.3125 C-520.24 486.9825 -521.23 486.6525 -522.25 486.3125 Z " fill="#000000" transform="translate(1430.25,295.6875)"/>
</svg>
